# xmcd
#
# Track frame offsets:
#        187
#        22770
#        40732
#        61350
#        70207
#        91687
#        111182
#        130972
#        147102
#        165715
#        184165
#
# Disc length: 2708 seconds
#
# Revision: 4
# Processed by: cddbd v1.5.1PL2 Copyright (c) Steve Scherf et al.
# Submitted via: ExactAudioCopy v0.95b2
#
DISCID=8d0a920b
DTITLE=Texas - Southside
DYEAR=1989
DGENRE=
TTITLE0=I Don't Want a Lover
TTITLE1=Tell Me Why
TTITLE2=Everyday Now
TTITLE3=Southside
TTITLE4=Prayer for You
TTITLE5=Faith
TTITLE6=Thrill Has Gone
TTITLE7=Fight The Feeling
TTITLE8=Fool for love
TTITLE9=One Choice
TTITLE10=Future Is Promises
EXTD=
EXTT0=
EXTT1=
EXTT2=
EXTT3=
EXTT4=
EXTT5=
EXTT6=
EXTT7=
EXTT8=
EXTT9=
EXTT10=
PLAYORDER=
